<svg width="27" height="27" viewBox="0 0 27 27" fill="none" xmlns="http://www.w3.org/2000/svg">
<path d="M9.03085 20.9566C9.03085 21.0621 8.90565 21.1465 8.74778 21.1465C8.56814 21.1623 8.44294 21.0779 8.44294 20.9566C8.44294 20.8512 8.56815 20.7668 8.72601 20.7668C8.88931 20.751 9.03085 20.8354 9.03085 20.9566ZM7.3379 20.7193C7.2998 20.8248 7.40867 20.9461 7.57198 20.9777C7.71351 21.0305 7.87681 20.9777 7.90948 20.8723C7.94214 20.7668 7.83871 20.6455 7.6754 20.598C7.53387 20.5611 7.37601 20.6139 7.3379 20.7193ZM9.74395 20.6297C9.58609 20.6666 9.47722 20.7668 9.49355 20.8881C9.50988 20.9936 9.65141 21.0621 9.81472 21.0252C9.97258 20.9883 10.0815 20.8881 10.0651 20.7826C10.0488 20.6824 9.90181 20.6139 9.74395 20.6297ZM13.3258 0.421875C5.77561 0.421875 0 5.9748 0 13.2891C0 19.1373 3.7996 24.1418 9.22681 25.9031C9.92359 26.0244 10.1685 25.6078 10.1685 25.265C10.1685 24.9381 10.1522 23.1346 10.1522 22.0271C10.1522 22.0271 6.34173 22.8182 5.54153 20.4557C5.54153 20.4557 4.92097 18.9211 4.02823 18.5256C4.02823 18.5256 2.78165 17.6977 4.11532 17.7135C4.11532 17.7135 5.47077 17.8189 6.21653 19.074C7.40867 21.1096 9.40645 20.5242 10.1849 20.1762C10.3101 19.3324 10.6639 18.7471 11.0558 18.399C8.0129 18.0721 4.94274 17.6449 4.94274 12.5719C4.94274 11.1217 5.35645 10.3939 6.22742 9.46582C6.08589 9.12305 5.62319 7.70977 6.36895 5.88516C7.50665 5.54238 10.125 7.30898 10.125 7.30898C11.2137 7.01367 12.3841 6.86074 13.5435 6.86074C14.703 6.86074 15.8734 7.01367 16.9621 7.30898C16.9621 7.30898 19.5804 5.53711 20.7181 5.88516C21.4639 7.71504 21.0012 9.12305 20.8597 9.46582C21.7306 10.3992 22.2641 11.127 22.2641 12.5719C22.2641 17.6607 19.0579 18.0668 16.0149 18.399C16.5157 18.8156 16.9403 19.6066 16.9403 20.8459C16.9403 22.623 16.924 24.8221 16.924 25.2545C16.924 25.5973 17.1744 26.0139 17.8657 25.8926C23.3093 24.1418 27 19.1373 27 13.2891C27 5.9748 20.876 0.421875 13.3258 0.421875ZM5.29113 18.61C5.22036 18.6627 5.23669 18.784 5.32923 18.8842C5.41633 18.9686 5.54153 19.0055 5.6123 18.9369C5.68306 18.8842 5.66673 18.7629 5.57419 18.6627C5.4871 18.5783 5.3619 18.5414 5.29113 18.61ZM4.70323 18.1828C4.66512 18.2514 4.71956 18.3357 4.82843 18.3885C4.91552 18.4412 5.02439 18.4254 5.0625 18.3516C5.10061 18.283 5.04617 18.1986 4.9373 18.1459C4.82843 18.1143 4.74133 18.1301 4.70323 18.1828ZM6.46694 20.0602C6.37984 20.1287 6.4125 20.2869 6.5377 20.3871C6.6629 20.5084 6.82077 20.5242 6.89153 20.4398C6.9623 20.3713 6.92964 20.2131 6.82077 20.1129C6.70101 19.9916 6.5377 19.9758 6.46694 20.0602ZM5.84637 19.285C5.75927 19.3377 5.75927 19.4748 5.84637 19.5961C5.93347 19.7174 6.08044 19.7701 6.15121 19.7174C6.23831 19.6488 6.23831 19.5117 6.15121 19.3904C6.075 19.2691 5.93347 19.2164 5.84637 19.285Z" fill="white"/>
</svg>
