<svg width="532" height="44" viewBox="0 0 532 44" fill="none" xmlns="http://www.w3.org/2000/svg">
<path d="M29.12 0.879999H31.12V-1.12H29.12V0.879999ZM25.34 39.82L23.9607 38.3717L23.9549 38.3772L23.9492 38.3828L25.34 39.82ZM4.58 39.64L3.20995 41.097L3.20995 41.097L4.58 39.64ZM0.56 28.9V26.9H-1.44V28.9H0.56ZM10.76 28.9H12.76V26.9H10.76V28.9ZM11.84 32.92L10.265 34.1526L10.2784 34.1697L10.2921 34.1865L11.84 32.92ZM17.84 33.04L16.3161 31.7447L16.3161 31.7447L17.84 33.04ZM18.86 0.879999V-1.12H16.86V0.879999H18.86ZM27.12 0.879999V29.56H31.12V0.879999H27.12ZM27.12 29.56C27.12 33.6123 25.9819 36.4467 23.9607 38.3717L26.7193 41.2683C29.7381 38.3933 31.12 34.3877 31.12 29.56H27.12ZM23.9492 38.3828C21.9235 40.3431 19.1063 41.42 15.26 41.42V45.42C19.8937 45.42 23.7965 44.0969 26.7308 41.2572L23.9492 38.3828ZM15.26 41.42C11.2176 41.42 8.18516 40.2846 5.95005 38.183L3.20995 41.097C6.33484 44.0354 10.4224 45.42 15.26 45.42V41.42ZM5.95005 38.183C3.77155 36.1345 2.56 33.1416 2.56 28.9H-1.44C-1.44 33.9384 0.0284489 38.1055 3.20995 41.097L5.95005 38.183ZM0.56 30.9H10.76V26.9H0.56V30.9ZM8.76 28.9C8.76 30.891 9.16098 32.7419 10.265 34.1526L13.415 31.6874C13.079 31.2581 12.76 30.429 12.76 28.9H8.76ZM10.2921 34.1865C11.4674 35.623 13.1305 36.24 14.96 36.24V32.24C14.0695 32.24 13.6526 31.977 13.3879 31.6535L10.2921 34.1865ZM14.96 36.24C16.6694 36.24 18.2339 35.6646 19.3639 34.3353L16.3161 31.7447C16.0861 32.0154 15.7306 32.24 14.96 32.24V36.24ZM19.3639 34.3353C20.4634 33.0418 20.86 31.3466 20.86 29.56H16.86C16.86 30.8134 16.5766 31.4382 16.3161 31.7447L19.3639 34.3353ZM20.86 29.56V0.879999H16.86V29.56H20.86ZM18.86 2.88H29.12V-1.12H18.86V2.88ZM46.4075 40.66L45.429 42.4043L45.438 42.4093L46.4075 40.66ZM38.5475 32.98L36.8162 33.9812L36.8233 33.9936L36.8307 34.0059L38.5475 32.98ZM38.5475 10.72L36.8307 9.69409L36.826 9.70184L36.8215 9.70964L38.5475 10.72ZM46.4075 3.04L45.438 1.29067L45.429 1.29571L46.4075 3.04ZM68.1875 3.04L67.209 4.78431L67.218 4.78931L68.1875 3.04ZM75.9875 10.72L74.2523 11.7146L74.2569 11.7225L74.2615 11.7304L75.9875 10.72ZM75.9875 32.98L77.7136 33.9904L77.7188 33.9812L75.9875 32.98ZM68.1875 40.66L69.166 42.4043L69.166 42.4043L68.1875 40.66ZM65.3675 30.7L63.8888 29.3533L63.8822 29.3606L63.8756 29.368L65.3675 30.7ZM65.3675 12.94L63.8756 14.272L63.8882 14.2861L63.901 14.2999L65.3675 12.94ZM49.1675 12.88L47.701 11.5201L47.6943 11.5274L47.6876 11.5347L49.1675 12.88ZM49.1675 30.76L47.6756 32.092L47.6882 32.1061L47.701 32.1199L49.1675 30.76ZM57.3275 41.42C53.6915 41.42 50.3873 40.579 47.377 38.9107L45.438 42.4093C49.0677 44.421 53.0435 45.42 57.3275 45.42V41.42ZM47.386 38.9157C44.4157 37.2494 42.0482 34.9393 40.2643 31.9541L36.8307 34.0059C38.9668 37.5807 41.8393 40.3906 45.429 42.4043L47.386 38.9157ZM40.2788 31.9787C38.5479 28.9856 37.6675 25.6154 37.6675 21.82H33.6675C33.6675 26.2646 34.7071 30.3344 36.8162 33.9812L40.2788 31.9787ZM37.6675 21.82C37.6675 18.0243 38.5479 14.6783 40.2735 11.7304L36.8215 9.70964C34.7071 13.3217 33.6675 17.3757 33.6675 21.82H37.6675ZM40.2643 11.7459C42.0482 8.7607 44.4157 6.45056 47.386 4.78429L45.429 1.29571C41.8393 3.30944 38.9668 6.1193 36.8307 9.69409L40.2643 11.7459ZM47.377 4.78931C50.3873 3.12096 53.6915 2.28 57.3275 2.28V-1.72C53.0435 -1.72 49.0677 -0.720965 45.438 1.29069L47.377 4.78931ZM57.3275 2.28C60.9636 2.28 64.2439 3.12092 67.209 4.78429L69.166 1.29571C65.5711 -0.72092 61.6114 -1.72 57.3275 -1.72V2.28ZM67.218 4.78931C70.22 6.45308 72.5546 8.75265 74.2523 11.7146L77.7227 9.72544C75.6604 6.12734 72.795 3.30692 69.157 1.29069L67.218 4.78931ZM74.2615 11.7304C75.9871 14.6783 76.8675 18.0243 76.8675 21.82H80.8675C80.8675 17.3757 79.8279 13.3217 77.7135 9.70964L74.2615 11.7304ZM76.8675 21.82C76.8675 25.6154 75.9871 28.9856 74.2562 31.9787L77.7188 33.9812C79.8279 30.3344 80.8675 26.2646 80.8675 21.82H76.8675ZM74.2615 31.9696C72.519 34.9463 70.1756 37.2515 67.209 38.9157L69.166 42.4043C72.7594 40.3885 75.616 37.5737 77.7135 33.9904L74.2615 31.9696ZM67.209 38.9157C64.2439 40.5791 60.9636 41.42 57.3275 41.42V45.42C61.6114 45.42 65.5711 44.4209 69.166 42.4043L67.209 38.9157ZM57.3275 36.06C61.1818 36.06 64.4324 34.7502 66.8594 32.032L63.8756 29.368C62.3026 31.1298 60.1932 32.06 57.3275 32.06V36.06ZM66.8462 32.0467C69.2903 29.3629 70.4275 25.8857 70.4275 21.82H66.4275C66.4275 25.1143 65.5247 27.5571 63.8888 29.3533L66.8462 32.0467ZM70.4275 21.82C70.4275 17.7223 69.2943 14.2334 66.834 11.5801L63.901 14.2999C65.5207 16.0466 66.4275 18.4777 66.4275 21.82H70.4275ZM66.8594 11.608C64.4324 8.88977 61.1818 7.58 57.3275 7.58V11.58C60.1932 11.58 62.3026 12.5102 63.8756 14.272L66.8594 11.608ZM57.3275 7.58C53.4526 7.58 50.1717 8.85564 47.701 11.5201L50.634 14.2399C52.2433 12.5044 54.4024 11.58 57.3275 11.58V7.58ZM47.6876 11.5347C45.2712 14.1927 44.1675 17.699 44.1675 21.82H48.1675C48.1675 18.421 49.0638 15.9673 50.6474 14.2253L47.6876 11.5347ZM44.1675 21.82C44.1675 25.9091 45.2752 29.4036 47.6756 32.092L50.6594 29.428C49.0598 27.6364 48.1675 25.1709 48.1675 21.82H44.1675ZM47.701 32.1199C50.1717 34.7844 53.4526 36.06 57.3275 36.06V32.06C54.4024 32.06 52.2433 31.1356 50.634 29.4001L47.701 32.1199ZM122.255 43V45H124.255V43H122.255ZM111.995 43L110.327 44.1023L110.92 45H111.995V43ZM94.8355 17.02L96.5043 15.9177L92.8355 10.3632V17.02H94.8355ZM94.8355 43V45H96.8355V43H94.8355ZM84.5755 43H82.5755V45H84.5755V43ZM84.5755 0.879999V-1.12H82.5755V0.879999H84.5755ZM94.8355 0.879999L96.5066 -0.21874L95.9141 -1.12H94.8355V0.879999ZM111.995 26.98L110.324 28.0787L113.995 33.6625V26.98H111.995ZM111.995 0.879999V-1.12H109.995V0.879999H111.995ZM122.255 0.879999H124.255V-1.12H122.255V0.879999ZM122.255 41H111.995V45H122.255V41ZM113.664 41.8977L96.5043 15.9177L93.1666 18.1223L110.327 44.1023L113.664 41.8977ZM92.8355 17.02V43H96.8355V17.02H92.8355ZM94.8355 41H84.5755V45H94.8355V41ZM86.5755 43V0.879999H82.5755V43H86.5755ZM84.5755 2.88H94.8355V-1.12H84.5755V2.88ZM93.1643 1.97874L110.324 28.0787L113.667 25.8813L96.5066 -0.21874L93.1643 1.97874ZM113.995 26.98V0.879999H109.995V26.98H113.995ZM111.995 2.88H122.255V-1.12H111.995V2.88ZM120.255 0.879999V43H124.255V0.879999H120.255ZM155.913 35.56L157.807 34.9184L157.347 33.56H155.913V35.56ZM140.193 35.56V33.56H138.758L138.298 34.9184L140.193 35.56ZM137.673 43V45H139.107L139.567 43.6416L137.673 43ZM126.933 43L125.052 42.3195L124.082 45H126.933V43ZM142.173 0.879999V-1.12H140.769L140.292 0.199525L142.173 0.879999ZM154.053 0.879999L155.933 0.199525L155.456 -1.12H154.053V0.879999ZM169.293 43V45H172.143L171.173 42.3195L169.293 43ZM158.433 43L156.538 43.6416L156.998 45H158.433V43ZM153.273 27.64V29.64H156.061L155.167 26.9987L153.273 27.64ZM148.053 12.22L149.947 11.5787L148.042 5.95025L146.156 11.5853L148.053 12.22ZM142.893 27.64L140.996 27.0053L140.114 29.64H142.893V27.64ZM155.913 33.56H140.193V37.56H155.913V33.56ZM138.298 34.9184L135.778 42.3584L139.567 43.6416L142.087 36.2016L138.298 34.9184ZM137.673 41H126.933V45H137.673V41ZM128.813 43.6805L144.053 1.56047L140.292 0.199525L125.052 42.3195L128.813 43.6805ZM142.173 2.88H154.053V-1.12H142.173V2.88ZM152.172 1.56047L167.412 43.6805L171.173 42.3195L155.933 0.199525L152.172 1.56047ZM169.293 41H158.433V45H169.293V41ZM160.327 42.3584L157.807 34.9184L154.018 36.2016L156.538 43.6416L160.327 42.3584ZM155.167 26.9987L149.947 11.5787L146.158 12.8613L151.378 28.2813L155.167 26.9987ZM146.156 11.5853L140.996 27.0053L144.789 28.2747L149.949 12.8547L146.156 11.5853ZM142.893 29.64H153.273V25.64H142.893V29.64ZM204.231 0.879999H206.231V-1.12H204.231V0.879999ZM204.231 9.1V11.1H206.231V9.1H204.231ZM193.071 9.1V7.1H191.071V9.1H193.071ZM193.071 43V45H195.071V43H193.071ZM182.811 43H180.811V45H182.811V43ZM182.811 9.1H184.811V7.1H182.811V9.1ZM171.651 9.1H169.651V11.1H171.651V9.1ZM171.651 0.879999V-1.12H169.651V0.879999H171.651ZM202.231 0.879999V9.1H206.231V0.879999H202.231ZM204.231 7.1H193.071V11.1H204.231V7.1ZM191.071 9.1V43H195.071V9.1H191.071ZM193.071 41H182.811V45H193.071V41ZM184.811 43V9.1H180.811V43H184.811ZM182.811 7.1H171.651V11.1H182.811V7.1ZM173.651 9.1V0.879999H169.651V9.1H173.651ZM171.651 2.88H204.231V-1.12H171.651V2.88ZM245.86 0.879999H247.86V-1.12H245.86V0.879999ZM245.86 43V45H247.86V43H245.86ZM235.6 43H233.6V45H235.6V43ZM235.6 25.66H237.6V23.66H235.6V25.66ZM219.64 25.66V23.66H217.64V25.66H219.64ZM219.64 43V45H221.64V43H219.64ZM209.38 43H207.38V45H209.38V43ZM209.38 0.879999V-1.12H207.38V0.879999H209.38ZM219.64 0.879999H221.64V-1.12H219.64V0.879999ZM219.64 17.38H217.64V19.38H219.64V17.38ZM235.6 17.38V19.38H237.6V17.38H235.6ZM235.6 0.879999V-1.12H233.6V0.879999H235.6ZM243.86 0.879999V43H247.86V0.879999H243.86ZM245.86 41H235.6V45H245.86V41ZM237.6 43V25.66H233.6V43H237.6ZM235.6 23.66H219.64V27.66H235.6V23.66ZM217.64 25.66V43H221.64V25.66H217.64ZM219.64 41H209.38V45H219.64V41ZM211.38 43V0.879999H207.38V43H211.38ZM209.38 2.88H219.64V-1.12H209.38V2.88ZM217.64 0.879999V17.38H221.64V0.879999H217.64ZM219.64 19.38H235.6V15.38H219.64V19.38ZM237.6 17.38V0.879999H233.6V17.38H237.6ZM235.6 2.88H245.86V-1.12H235.6V2.88ZM279.487 35.56L281.381 34.9184L280.921 33.56H279.487V35.56ZM263.767 35.56V33.56H262.333L261.873 34.9184L263.767 35.56ZM261.247 43V45H262.681L263.141 43.6416L261.247 43ZM250.507 43L248.626 42.3195L247.656 45H250.507V43ZM265.747 0.879999V-1.12H264.344L263.866 0.199525L265.747 0.879999ZM277.627 0.879999L279.508 0.199525L279.03 -1.12H277.627V0.879999ZM292.867 43V45H295.717L294.748 42.3195L292.867 43ZM282.007 43L280.113 43.6416L280.573 45H282.007V43ZM276.847 27.64V29.64H279.635L278.741 26.9987L276.847 27.64ZM271.627 12.22L273.521 11.5787L271.616 5.95025L269.73 11.5853L271.627 12.22ZM266.467 27.64L264.57 27.0053L263.689 29.64H266.467V27.64ZM279.487 33.56H263.767V37.56H279.487V33.56ZM261.873 34.9184L259.353 42.3584L263.141 43.6416L265.661 36.2016L261.873 34.9184ZM261.247 41H250.507V45H261.247V41ZM252.388 43.6805L267.628 1.56047L263.866 0.199525L248.626 42.3195L252.388 43.6805ZM265.747 2.88H277.627V-1.12H265.747V2.88ZM275.746 1.56047L290.986 43.6805L294.748 42.3195L279.508 0.199525L275.746 1.56047ZM292.867 41H282.007V45H292.867V41ZM283.901 42.3584L281.381 34.9184L277.593 36.2016L280.113 43.6416L283.901 42.3584ZM278.741 26.9987L273.521 11.5787L269.732 12.8613L274.952 28.2813L278.741 26.9987ZM269.73 11.5853L264.57 27.0053L268.364 28.2747L273.524 12.8547L269.73 11.5853ZM266.467 29.64H276.847V25.64H266.467V29.64ZM335.185 43V45H337.185V43H335.185ZM324.925 43L323.256 44.1023L323.849 45H324.925V43ZM307.765 17.02L309.434 15.9177L305.765 10.3632V17.02H307.765ZM307.765 43V45H309.765V43H307.765ZM297.505 43H295.505V45H297.505V43ZM297.505 0.879999V-1.12H295.505V0.879999H297.505ZM307.765 0.879999L309.436 -0.21874L308.844 -1.12H307.765V0.879999ZM324.925 26.98L323.254 28.0787L326.925 33.6625V26.98H324.925ZM324.925 0.879999V-1.12H322.925V0.879999H324.925ZM335.185 0.879999H337.185V-1.12H335.185V0.879999ZM335.185 41H324.925V45H335.185V41ZM326.594 41.8977L309.434 15.9177L306.096 18.1223L323.256 44.1023L326.594 41.8977ZM305.765 17.02V43H309.765V17.02H305.765ZM307.765 41H297.505V45H307.765V41ZM299.505 43V0.879999H295.505V43H299.505ZM297.505 2.88H307.765V-1.12H297.505V2.88ZM306.094 1.97874L323.254 28.0787L326.596 25.8813L309.436 -0.21874L306.094 1.97874ZM326.925 26.98V0.879999H322.925V26.98H326.925ZM324.925 2.88H335.185V-1.12H324.925V2.88ZM333.185 0.879999V43H337.185V0.879999H333.185ZM391.817 0.879999H393.817V-1.12H391.817V0.879999ZM391.817 43V45H393.817V43H391.817ZM381.557 43H379.557V45H381.557V43ZM381.557 25.66H383.557V23.66H381.557V25.66ZM365.597 25.66V23.66H363.597V25.66H365.597ZM365.597 43V45H367.597V43H365.597ZM355.337 43H353.337V45H355.337V43ZM355.337 0.879999V-1.12H353.337V0.879999H355.337ZM365.597 0.879999H367.597V-1.12H365.597V0.879999ZM365.597 17.38H363.597V19.38H365.597V17.38ZM381.557 17.38V19.38H383.557V17.38H381.557ZM381.557 0.879999V-1.12H379.557V0.879999H381.557ZM389.817 0.879999V43H393.817V0.879999H389.817ZM391.817 41H381.557V45H391.817V41ZM383.557 43V25.66H379.557V43H383.557ZM381.557 23.66H365.597V27.66H381.557V23.66ZM363.597 25.66V43H367.597V25.66H363.597ZM365.597 41H355.337V45H365.597V41ZM357.337 43V0.879999H353.337V43H357.337ZM355.337 2.88H365.597V-1.12H355.337V2.88ZM363.597 0.879999V17.38H367.597V0.879999H363.597ZM365.597 19.38H381.557V15.38H365.597V19.38ZM383.557 17.38V0.879999H379.557V17.38H383.557ZM381.557 2.88H391.817V-1.12H381.557V2.88ZM408.224 40.66L407.245 42.4043L407.254 42.4093L408.224 40.66ZM400.364 32.98L398.633 33.9812L398.64 33.9936L398.647 34.0059L400.364 32.98ZM400.364 10.72L398.647 9.69409L398.642 9.70184L398.638 9.70964L400.364 10.72ZM408.224 3.04L407.254 1.29067L407.245 1.29571L408.224 3.04ZM430.004 3.04L429.025 4.78431L429.034 4.78931L430.004 3.04ZM437.804 10.72L436.069 11.7146L436.073 11.7225L436.078 11.7304L437.804 10.72ZM437.804 32.98L439.53 33.9904L439.535 33.9812L437.804 32.98ZM430.004 40.66L430.982 42.4043L430.982 42.4043L430.004 40.66ZM427.184 30.7L425.705 29.3533L425.699 29.3606L425.692 29.368L427.184 30.7ZM427.184 12.94L425.692 14.272L425.705 14.2861L425.717 14.2999L427.184 12.94ZM410.984 12.88L409.517 11.5201L409.511 11.5274L409.504 11.5347L410.984 12.88ZM410.984 30.76L409.492 32.092L409.505 32.1061L409.517 32.1199L410.984 30.76ZM419.144 41.42C415.508 41.42 412.204 40.579 409.193 38.9107L407.254 42.4093C410.884 44.421 414.86 45.42 419.144 45.42V41.42ZM409.202 38.9157C406.232 37.2494 403.865 34.9393 402.081 31.9541L398.647 34.0059C400.783 37.5807 403.656 40.3906 407.245 42.4043L409.202 38.9157ZM402.095 31.9787C400.364 28.9856 399.484 25.6154 399.484 21.82H395.484C395.484 26.2646 396.524 30.3344 398.633 33.9812L402.095 31.9787ZM399.484 21.82C399.484 18.0243 400.364 14.6783 402.09 11.7304L398.638 9.70964C396.524 13.3217 395.484 17.3757 395.484 21.82H399.484ZM402.081 11.7459C403.865 8.7607 406.232 6.45056 409.202 4.78429L407.245 1.29571C403.656 3.30944 400.783 6.1193 398.647 9.69409L402.081 11.7459ZM409.193 4.78931C412.204 3.12096 415.508 2.28 419.144 2.28V-1.72C414.86 -1.72 410.884 -0.720965 407.254 1.29069L409.193 4.78931ZM419.144 2.28C422.78 2.28 426.06 3.12092 429.025 4.78429L430.982 1.29571C427.388 -0.72092 423.428 -1.72 419.144 -1.72V2.28ZM429.034 4.78931C432.036 6.45308 434.371 8.75265 436.069 11.7146L439.539 9.72544C437.477 6.12734 434.611 3.30692 430.973 1.29069L429.034 4.78931ZM436.078 11.7304C437.804 14.6783 438.684 18.0243 438.684 21.82H442.684C442.684 17.3757 441.644 13.3217 439.53 9.70964L436.078 11.7304ZM438.684 21.82C438.684 25.6154 437.804 28.9856 436.073 31.9787L439.535 33.9812C441.644 30.3344 442.684 26.2646 442.684 21.82H438.684ZM436.078 31.9696C434.335 34.9463 431.992 37.2515 429.025 38.9157L430.982 42.4043C434.576 40.3885 437.432 37.5737 439.53 33.9904L436.078 31.9696ZM429.025 38.9157C426.06 40.5791 422.78 41.42 419.144 41.42V45.42C423.428 45.42 427.388 44.4209 430.982 42.4043L429.025 38.9157ZM419.144 36.06C422.998 36.06 426.249 34.7502 428.676 32.032L425.692 29.368C424.119 31.1298 422.01 32.06 419.144 32.06V36.06ZM428.663 32.0467C431.107 29.3629 432.244 25.8857 432.244 21.82H428.244C428.244 25.1143 427.341 27.5571 425.705 29.3533L428.663 32.0467ZM432.244 21.82C432.244 17.7223 431.111 14.2334 428.65 11.5801L425.717 14.2999C427.337 16.0466 428.244 18.4777 428.244 21.82H432.244ZM428.676 11.608C426.249 8.88977 422.998 7.58 419.144 7.58V11.58C422.01 11.58 424.119 12.5102 425.692 14.272L428.676 11.608ZM419.144 7.58C415.269 7.58 411.988 8.85564 409.517 11.5201L412.45 14.2399C414.06 12.5044 416.219 11.58 419.144 11.58V7.58ZM409.504 11.5347C407.088 14.1927 405.984 17.699 405.984 21.82H409.984C409.984 18.421 410.88 15.9673 412.464 14.2253L409.504 11.5347ZM405.984 21.82C405.984 25.9091 407.092 29.4036 409.492 32.092L412.476 29.428C410.876 27.6364 409.984 25.1709 409.984 21.82H405.984ZM409.517 32.1199C411.988 34.7844 415.269 36.06 419.144 36.06V32.06C416.219 32.06 414.06 31.1356 412.45 29.4001L409.517 32.1199ZM484.072 43V45H486.072V43H484.072ZM473.812 43L472.143 44.1023L472.736 45H473.812V43ZM456.652 17.02L458.321 15.9177L454.652 10.3632V17.02H456.652ZM456.652 43V45H458.652V43H456.652ZM446.392 43H444.392V45H446.392V43ZM446.392 0.879999V-1.12H444.392V0.879999H446.392ZM456.652 0.879999L458.323 -0.21874L457.73 -1.12H456.652V0.879999ZM473.812 26.98L472.141 28.0787L475.812 33.6625V26.98H473.812ZM473.812 0.879999V-1.12H471.812V0.879999H473.812ZM484.072 0.879999H486.072V-1.12H484.072V0.879999ZM484.072 41H473.812V45H484.072V41ZM475.481 41.8977L458.321 15.9177L454.983 18.1223L472.143 44.1023L475.481 41.8977ZM454.652 17.02V43H458.652V17.02H454.652ZM456.652 41H446.392V45H456.652V41ZM448.392 43V0.879999H444.392V43H448.392ZM446.392 2.88H456.652V-1.12H446.392V2.88ZM454.981 1.97874L472.141 28.0787L475.483 25.8813L458.323 -0.21874L454.981 1.97874ZM475.812 26.98V0.879999H471.812V26.98H475.812ZM473.812 2.88H484.072V-1.12H473.812V2.88ZM482.072 0.879999V43H486.072V0.879999H482.072ZM519.469 14.2L517.711 15.1542L518.279 16.2H519.469V14.2ZM516.169 11.02L515.215 12.7777L515.244 12.7938L515.275 12.8089L516.169 11.02ZM503.209 13.18L504.677 14.5388L504.683 14.5321L504.689 14.5253L503.209 13.18ZM503.329 31L501.876 32.374L501.889 32.3876L501.902 32.4009L503.329 31ZM518.389 32.32L517.213 30.7025L517.204 30.709L517.195 30.7155L518.389 32.32ZM522.229 26.8L524.126 27.4325L525.004 24.8H522.229V26.8ZM509.209 26.8H507.209V28.8H509.209V26.8ZM509.209 19.24V17.24H507.209V19.24H509.209ZM531.529 19.24H533.529V17.24H531.529V19.24ZM531.529 28.78L533.446 29.3492L533.529 29.0706V28.78H531.529ZM527.629 35.92L526.095 34.6369L526.088 34.6452L526.081 34.6535L527.629 35.92ZM520.729 41.26L519.855 39.461L520.729 41.26ZM500.089 40.6L499.101 42.3391L499.114 42.3463L499.127 42.3533L500.089 40.6ZM492.469 32.98L490.721 33.9513L490.725 33.9595L490.73 33.9676L492.469 32.98ZM492.469 10.78L490.725 9.80149L490.721 9.80871L492.469 10.78ZM500.089 3.16L501.06 4.90831L501.069 4.90375L501.077 4.89912L500.089 3.16ZM523.909 4.06L522.752 5.69132L522.761 5.69758L523.909 4.06ZM530.809 14.2V16.2H533.394L532.745 13.6981L530.809 14.2ZM521.227 13.2458C520.269 11.4816 518.866 10.1323 517.063 9.23114L515.275 12.8089C516.352 13.3477 517.149 14.1184 517.711 15.1542L521.227 13.2458ZM517.123 9.26229C515.376 8.31371 513.374 7.88 511.189 7.88V11.88C512.844 11.88 514.162 12.2063 515.215 12.7777L517.123 9.26229ZM511.189 7.88C507.379 7.88 504.155 9.16657 501.729 11.8347L504.689 14.5253C506.263 12.7934 508.36 11.88 511.189 11.88V7.88ZM501.742 11.8212C499.323 14.4333 498.209 17.861 498.209 21.88H502.209C502.209 18.619 503.095 16.2467 504.677 14.5388L501.742 11.8212ZM498.209 21.88C498.209 26.1216 499.354 29.7067 501.876 32.374L504.782 29.626C503.144 27.8933 502.209 25.3984 502.209 21.88H498.209ZM501.902 32.4009C504.477 35.0243 507.936 36.24 512.029 36.24V32.24C508.762 32.24 506.422 31.2957 504.756 29.5991L501.902 32.4009ZM512.029 36.24C514.901 36.24 517.46 35.5043 519.583 33.9245L517.195 30.7155C515.878 31.6957 514.197 32.24 512.029 32.24V36.24ZM519.565 33.9375C521.715 32.3741 523.217 30.1616 524.126 27.4325L520.332 26.1675C519.641 28.2384 518.583 29.7059 517.213 30.7025L519.565 33.9375ZM522.229 24.8H509.209V28.8H522.229V24.8ZM511.209 26.8V19.24H507.209V26.8H511.209ZM509.209 21.24H531.529V17.24H509.209V21.24ZM529.529 19.24V28.78H533.529V19.24H529.529ZM529.612 28.2108C528.935 30.4903 527.773 32.6305 526.095 34.6369L529.163 37.2031C531.165 34.8095 532.603 32.1897 533.446 29.3492L529.612 28.2108ZM526.081 34.6535C524.481 36.6087 522.42 38.2154 519.855 39.461L521.603 43.059C524.638 41.5846 527.177 39.6313 529.177 37.1865L526.081 34.6535ZM519.855 39.461C517.361 40.6724 514.506 41.3 511.249 41.3V45.3C515.032 45.3 518.497 44.5676 521.603 43.059L519.855 39.461ZM511.249 41.3C507.387 41.3 504.004 40.4673 501.051 38.8467L499.127 42.3533C502.734 44.3327 506.791 45.3 511.249 45.3V41.3ZM501.077 38.8609C498.15 37.199 495.87 34.9187 494.208 31.9923L490.73 33.9676C492.748 37.5213 495.548 40.321 499.101 42.3391L501.077 38.8609ZM494.217 32.0087C492.602 29.1008 491.769 25.7425 491.769 21.88H487.769C487.769 26.3375 488.736 30.3792 490.721 33.9513L494.217 32.0087ZM491.769 21.88C491.769 18.0175 492.602 14.6592 494.217 11.7513L490.721 9.80871C488.736 13.3808 487.769 17.4225 487.769 21.88H491.769ZM494.213 11.7585C495.875 8.79677 498.149 6.52553 501.06 4.90831L499.118 1.41168C495.549 3.39447 492.743 6.20323 490.725 9.8015L494.213 11.7585ZM501.077 4.89912C503.982 3.24936 507.334 2.4 511.189 2.4V-1.6C506.724 -1.6 502.676 -0.609363 499.101 1.42088L501.077 4.89912ZM511.189 2.4C515.897 2.4 519.712 3.53495 522.752 5.6913L525.066 2.42869C521.226 -0.29495 516.561 -1.6 511.189 -1.6V2.4ZM522.761 5.69758C525.831 7.8502 527.866 10.817 528.873 14.7019L532.745 13.6981C531.512 8.94295 528.947 5.1498 525.057 2.42242L522.761 5.69758ZM530.809 12.2H519.469V16.2H530.809V12.2Z" fill="white"/>
</svg>
