<svg width="19" height="25" viewBox="0 0 19 25" fill="none" xmlns="http://www.w3.org/2000/svg">
<path d="M9.00026 12.5049C8.75286 11.7236 8.75781 10.2148 8.9013 10.2148C9.31693 10.2148 9.27734 12.0166 9.00026 12.5049ZM8.91615 14.8096C8.53516 15.7959 8.06016 16.9238 7.51094 17.8711C8.41641 17.5293 9.44063 17.0312 10.6232 16.8018C9.99479 16.333 9.39115 15.6592 8.91615 14.8096ZM4.26016 20.9033C4.26016 20.9424 4.91328 20.6396 5.98698 18.9404C5.65547 19.248 4.54714 20.1367 4.26016 20.9033ZM12.2708 7.8125H19V23.8281C19 24.4775 18.4706 25 17.8125 25H1.1875C0.529427 25 0 24.4775 0 23.8281V1.17188C0 0.522461 0.529427 0 1.1875 0H11.0833V6.64062C11.0833 7.28516 11.6177 7.8125 12.2708 7.8125ZM11.875 16.2012C10.8854 15.6055 10.2273 14.7852 9.76224 13.5742C9.9849 12.6709 10.3362 11.2988 10.069 10.4395C9.83646 9.00391 7.97109 9.14551 7.70391 10.1074C7.45651 11.001 7.68411 12.2607 8.10469 13.8672C7.53073 15.2148 6.68464 17.0215 6.08594 18.0566C6.08099 18.0566 6.08099 18.0615 6.07604 18.0615C4.73516 18.7402 2.43438 20.2344 3.37943 21.3818C3.65651 21.7188 4.17109 21.8701 4.44323 21.8701C5.32891 21.8701 6.20964 20.9912 7.46641 18.8525C8.74297 18.4375 10.1432 17.9199 11.3753 17.7197C12.449 18.2959 13.7057 18.6719 14.5419 18.6719C15.9867 18.6719 16.0857 17.1094 15.5167 16.5527C14.8289 15.8887 12.8299 16.0791 11.875 16.2012ZM18.6536 5.12695L13.8047 0.341797C13.582 0.12207 13.2802 0 12.9635 0H12.6667V6.25H19V5.95215C19 5.64453 18.8763 5.34668 18.6536 5.12695ZM14.9872 17.5928C15.1901 17.4609 14.8635 17.0117 12.8695 17.1533C14.7052 17.9248 14.9872 17.5928 14.9872 17.5928Z" fill="white"/>
</svg>
